<?xml version="1.0" ?><svg height="32" viewBox="0 0 32 32" width="32" xmlns="http://www.w3.org/2000/svg"><title/><g data-name="2" id="_2"><path d="M26,12.54A5.43,5.43,0,0,0,21.88,6l-1.53-.35.69-3-1.8-.42-.7,3-2.09-.48.69-3-1.8-.42-.69,3-5-1.14L9.29,5l3,.69L8.2,23.4l-3-.69-.41,1.8,4.94,1.14-.69,3,1.8.41.69-3,2.1.48-.69,3,1.8.41.69-3h.07l2.44.56a6,6,0,0,0,1.46.17,6.45,6.45,0,0,0,6.25-5,6.41,6.41,0,0,0-.82-4.85,6.53,6.53,0,0,0-1.65-1.78c.12-.06.24-.11.36-.18A5.45,5.45,0,0,0,26,12.54ZM23.69,9.42a3.58,3.58,0,0,1-1.14,4.93,3.55,3.55,0,0,1-1.78.53,3.93,3.93,0,0,0,.94-1.78l.68-2.93a4,4,0,0,0-.09-2A3.54,3.54,0,0,1,23.69,9.42ZM20.28,20l-.67,2.93a3.09,3.09,0,0,1-3.69,2.3l-2-.47L16,15.8l2,.47A3.07,3.07,0,0,1,20.28,20Zm0-11.76a2,2,0,0,1,.26,1.57l-.67,2.92a2.09,2.09,0,0,1-2.49,1.56h0L16.37,14,18,7,19,7.27h0A2,2,0,0,1,20.32,8.19ZM14.08,6.13l2.1.48L12.1,24.3,10,23.81Zm9.76,16.18a4.52,4.52,0,0,1-3.91,3.5,4.8,4.8,0,0,0,1.48-2.52l.68-2.92a4.9,4.9,0,0,0-.23-2.92,4.55,4.55,0,0,1,2,4.86Z" id="bitcoin_sign_btc_corrency"/></g></svg>